<svg width="914" height="1080" viewBox="0 0 914 1080" fill="none" xmlns="http://www.w3.org/2000/svg">
<mask id="path-1-inside-1_12842_10990" fill="white">
<path d="M404 467.572L734.624 136.949L777.05 179.375L446.425 510H914V570H446.426L777.051 900.625L734.624 943.052L404 612.427V1080H344V612.425L13.375 943.051L-29.0518 900.624L301.572 570H-166V510H301.573L-29.0508 179.376L13.375 136.949L344 467.574V0H404V467.572Z"/>
</mask>
<path d="M404 467.572L734.624 136.949L777.05 179.375L446.425 510H914V570H446.426L777.051 900.625L734.624 943.052L404 612.427V1080H344V612.425L13.375 943.051L-29.0518 900.624L301.572 570H-166V510H301.573L-29.0508 179.376L13.375 136.949L344 467.574V0H404V467.572Z" fill="url(#paint0_radial_12842_10990)"/>
<path d="M404 467.572H403V469.986L404.707 468.279L404 467.572ZM734.624 136.949L735.331 136.242L734.624 135.535L733.917 136.242L734.624 136.949ZM777.05 179.375L777.757 180.082L778.464 179.375L777.757 178.668L777.05 179.375ZM446.425 510L445.718 509.293L444.011 511H446.425V510ZM914 510H915V509H914V510ZM914 570V571H915V570H914ZM446.426 570V569H444.012L445.719 570.707L446.426 570ZM777.051 900.625L777.758 901.332L778.465 900.625L777.758 899.918L777.051 900.625ZM734.624 943.052L733.917 943.759L734.624 944.466L735.331 943.759L734.624 943.052ZM404 612.427L404.707 611.72L403 610.013V612.427H404ZM404 1080V1081H405V1080H404ZM344 1080H343V1081H344V1080ZM344 612.425H345V610.011L343.293 611.718L344 612.425ZM13.375 943.051L12.6679 943.758L13.375 944.465L14.0821 943.758L13.375 943.051ZM-29.0518 900.624L-29.7589 899.917L-30.466 900.624L-29.7589 901.331L-29.0518 900.624ZM301.572 570L302.279 570.707L303.986 569H301.572V570ZM-166 570H-167V571H-166V570ZM-166 510V509H-167V510H-166ZM301.573 510V511H303.987L302.28 509.293L301.573 510ZM-29.0508 179.376L-29.7579 178.669L-30.465 179.376L-29.7579 180.083L-29.0508 179.376ZM13.375 136.949L14.0821 136.242L13.375 135.535L12.6679 136.242L13.375 136.949ZM344 467.574L343.293 468.281L345 469.988V467.574H344ZM344 0V-1H343V0H344ZM404 0H405V-1H404V0ZM404 467.572L404.707 468.279L735.331 137.656L734.624 136.949L733.917 136.242L403.293 466.865L404 467.572ZM734.624 136.949L733.917 137.656L776.343 180.082L777.05 179.375L777.757 178.668L735.331 136.242L734.624 136.949ZM777.05 179.375L776.343 178.668L445.718 509.293L446.425 510L447.132 510.707L777.757 180.082L777.05 179.375ZM446.425 510V511H914V510V509H446.425V510ZM914 510H913V570H914H915V510H914ZM914 570V569H446.426V570V571H914V570ZM446.426 570L445.719 570.707L776.344 901.332L777.051 900.625L777.758 899.918L447.133 569.293L446.426 570ZM777.051 900.625L776.344 899.918L733.917 942.345L734.624 943.052L735.331 943.759L777.758 901.332L777.051 900.625ZM734.624 943.052L735.331 942.345L404.707 611.72L404 612.427L403.293 613.134L733.917 943.759L734.624 943.052ZM404 612.427H403V1080H404H405V612.427H404ZM404 1080V1079H344V1080V1081H404V1080ZM344 1080H345V612.425H344H343V1080H344ZM344 612.425L343.293 611.718L12.6679 942.344L13.375 943.051L14.0821 943.758L344.707 613.132L344 612.425ZM13.375 943.051L14.0821 942.344L-28.3447 899.917L-29.0518 900.624L-29.7589 901.331L12.6679 943.758L13.375 943.051ZM-29.0518 900.624L-28.3447 901.331L302.279 570.707L301.572 570L300.865 569.293L-29.7589 899.917L-29.0518 900.624ZM301.572 570V569H-166V570V571H301.572V570ZM-166 570H-165V510H-166H-167V570H-166ZM-166 510V511H301.573V510V509H-166V510ZM301.573 510L302.28 509.293L-28.3437 178.669L-29.0508 179.376L-29.7579 180.083L300.866 510.707L301.573 510ZM-29.0508 179.376L-28.3437 180.083L14.0821 137.656L13.375 136.949L12.6679 136.242L-29.7579 178.669L-29.0508 179.376ZM13.375 136.949L12.6679 137.656L343.293 468.281L344 467.574L344.707 466.867L14.0821 136.242L13.375 136.949ZM344 467.574H345V0H344H343V467.574H344ZM344 0V1H404V0V-1H344V0ZM404 0H403V467.572H404H405V0H404Z" fill="url(#paint1_radial_12842_10990)" mask="url(#path-1-inside-1_12842_10990)"/>
<rect width="12" height="12" transform="translate(136 510)" fill="#8B86F7"/>
<rect width="12" height="12" transform="translate(136 526)" fill="#8B86F7"/>
<rect width="12" height="12" transform="translate(136 542)" fill="#8B86F7"/>
<rect width="12" height="12" transform="translate(136 558)" fill="#8B86F7"/>
<rect width="12" height="12" transform="translate(152 510)" fill="#8B86F7"/>
<rect width="12" height="12" transform="translate(152 526)" fill="#8B86F7"/>
<rect width="12" height="12" transform="translate(152 542)" fill="#8B86F7"/>
<rect width="12" height="12" transform="translate(152 558)" fill="#8B86F7"/>
<rect width="12" height="12" transform="translate(168 510)" fill="#8B86F7"/>
<rect width="12" height="12" transform="translate(168 526)" fill="#8B86F7"/>
<rect width="12" height="12" transform="translate(168 542)" fill="#8B86F7"/>
<rect width="12" height="12" transform="translate(168 558)" fill="#8B86F7"/>
<rect width="12" height="12" transform="translate(184 382)" fill="#8B86F7"/>
<rect width="12" height="12" transform="translate(184 510)" fill="#8B86F7"/>
<rect width="12" height="12" transform="translate(184 526)" fill="#8B86F7"/>
<rect width="12" height="12" transform="translate(184 542)" fill="#8B86F7"/>
<rect width="12" height="12" transform="translate(184 558)" fill="#8B86F7"/>
<rect width="12" height="12" transform="translate(184 686)" fill="#8B86F7"/>
<rect width="12" height="12" transform="translate(200 366)" fill="#8B86F7"/>
<rect width="12" height="12" transform="translate(200 382)" fill="#8B86F7"/>
<rect width="12" height="12" transform="translate(200 398)" fill="#8B86F7"/>
<rect width="12" height="12" transform="translate(200 510)" fill="#8B86F7"/>
<rect width="12" height="12" transform="translate(200 526)" fill="#8B86F7"/>
<rect width="12" height="12" transform="translate(200 542)" fill="#8B86F7"/>
<rect width="12" height="12" transform="translate(200 558)" fill="#8B86F7"/>
<rect width="12" height="12" transform="translate(200 670)" fill="#8B86F7"/>
<rect width="12" height="12" transform="translate(200 686)" fill="#8B86F7"/>
<rect width="12" height="12" transform="translate(200 702)" fill="#8B86F7"/>
<rect width="12" height="12" transform="translate(216 350)" fill="#8B86F7"/>
<rect width="12" height="12" transform="translate(216 366)" fill="#8B86F7"/>
<rect width="12" height="12" transform="translate(216 382)" fill="#8B86F7"/>
<rect width="12" height="12" transform="translate(216 398)" fill="#8B86F7"/>
<rect width="12" height="12" transform="translate(216 414)" fill="#8B86F7"/>
<rect width="12" height="12" transform="translate(216 510)" fill="#8B86F7"/>
<rect width="12" height="12" transform="translate(216 526)" fill="#8B86F7"/>
<rect width="12" height="12" transform="translate(216 542)" fill="#8B86F7"/>
<rect width="12" height="12" transform="translate(216 558)" fill="#8B86F7"/>
<rect width="12" height="12" transform="translate(216 654)" fill="#8B86F7"/>
<rect width="12" height="12" transform="translate(216 670)" fill="#8B86F7"/>
<rect width="12" height="12" transform="translate(216 686)" fill="#8B86F7"/>
<rect width="12" height="12" transform="translate(216 702)" fill="#8B86F7"/>
<rect width="12" height="12" transform="translate(216 718)" fill="#8B86F7"/>
<rect width="12" height="12" transform="translate(232 366)" fill="#8B86F7"/>
<rect width="12" height="12" transform="translate(232 382)" fill="#8B86F7"/>
<rect width="12" height="12" transform="translate(232 398)" fill="#8B86F7"/>
<rect width="12" height="12" transform="translate(232 414)" fill="#8B86F7"/>
<rect width="12" height="12" transform="translate(232 430)" fill="#8B86F7"/>
<rect width="12" height="12" transform="translate(232 510)" fill="#8B86F7"/>
<rect width="12" height="12" transform="translate(232 526)" fill="#8B86F7"/>
<rect width="12" height="12" transform="translate(232 542)" fill="#8B86F7"/>
<rect width="12" height="12" transform="translate(232 558)" fill="#8B86F7"/>
<rect width="12" height="12" transform="translate(232 638)" fill="#8B86F7"/>
<rect width="12" height="12" transform="translate(232 654)" fill="#8B86F7"/>
<rect width="12" height="12" transform="translate(232 670)" fill="#8B86F7"/>
<rect width="12" height="12" transform="translate(232 686)" fill="#8B86F7"/>
<rect width="12" height="12" transform="translate(232 702)" fill="#8B86F7"/>
<rect width="12" height="12" transform="translate(248 382)" fill="#8B86F7"/>
<rect width="12" height="12" transform="translate(248 398)" fill="#8B86F7"/>
<rect width="12" height="12" transform="translate(248 414)" fill="#8B86F7"/>
<rect width="12" height="12" transform="translate(248 430)" fill="#8B86F7"/>
<rect width="12" height="12" transform="translate(248 446)" fill="#8B86F7"/>
<rect width="12" height="12" transform="translate(248 510)" fill="#8B86F7"/>
<rect width="12" height="12" transform="translate(248 526)" fill="#8B86F7"/>
<rect width="12" height="12" transform="translate(248 542)" fill="#8B86F7"/>
<rect width="12" height="12" transform="translate(248 558)" fill="#8B86F7"/>
<rect width="12" height="12" transform="translate(248 622)" fill="#8B86F7"/>
<rect width="12" height="12" transform="translate(248 638)" fill="#8B86F7"/>
<rect width="12" height="12" transform="translate(248 654)" fill="#8B86F7"/>
<rect width="12" height="12" transform="translate(248 670)" fill="#8B86F7"/>
<rect width="12" height="12" transform="translate(248 686)" fill="#8B86F7"/>
<rect width="12" height="12" transform="translate(264 398)" fill="#8B86F7"/>
<rect width="12" height="12" transform="translate(264 414)" fill="#8B86F7"/>
<rect width="12" height="12" transform="translate(264 430)" fill="#8B86F7"/>
<rect width="12" height="12" transform="translate(264 446)" fill="#8B86F7"/>
<rect width="12" height="12" transform="translate(264 462)" fill="#8B86F7"/>
<rect width="12" height="12" transform="translate(264 510)" fill="#8B86F7"/>
<rect width="12" height="12" transform="translate(264 526)" fill="#8B86F7"/>
<rect width="12" height="12" transform="translate(264 542)" fill="#8B86F7"/>
<rect width="12" height="12" transform="translate(264 558)" fill="#8B86F7"/>
<rect width="12" height="12" transform="translate(264 606)" fill="#8B86F7"/>
<rect width="12" height="12" transform="translate(264 622)" fill="#8B86F7"/>
<rect width="12" height="12" transform="translate(264 638)" fill="#8B86F7"/>
<rect width="12" height="12" transform="translate(264 654)" fill="#8B86F7"/>
<rect width="12" height="12" transform="translate(264 670)" fill="#8B86F7"/>
<rect width="12" height="12" transform="translate(280 414)" fill="#8B86F7"/>
<rect width="12" height="12" transform="translate(280 430)" fill="#8B86F7"/>
<rect width="12" height="12" transform="translate(280 446)" fill="#8B86F7"/>
<rect width="12" height="12" transform="translate(280 462)" fill="#8B86F7"/>
<rect width="12" height="12" transform="translate(280 478)" fill="#8B86F7"/>
<rect width="12" height="12" transform="translate(280 510)" fill="#8B86F7"/>
<rect width="12" height="12" transform="translate(280 526)" fill="#8B86F7"/>
<rect width="12" height="12" transform="translate(280 542)" fill="#8B86F7"/>
<rect width="12" height="12" transform="translate(280 590)" fill="#8B86F7"/>
<rect width="12" height="12" transform="translate(280 606)" fill="#8B86F7"/>
<rect width="12" height="12" transform="translate(280 622)" fill="#8B86F7"/>
<rect width="12" height="12" transform="translate(280 638)" fill="#8B86F7"/>
<rect width="12" height="12" transform="translate(280 654)" fill="#8B86F7"/>
<rect width="12" height="12" transform="translate(296 430)" fill="#8B86F7"/>
<rect width="12" height="12" transform="translate(296 446)" fill="#8B86F7"/>
<rect width="12" height="12" transform="translate(296 462)" fill="#8B86F7"/>
<rect width="12" height="12" transform="translate(296 478)" fill="#8B86F7"/>
<rect width="12" height="12" transform="translate(296 494)" fill="#8B86F7"/>
<rect width="12" height="12" transform="translate(296 510)" fill="#8B86F7"/>
<rect width="12" height="12" transform="translate(296 526)" fill="#8B86F7"/>
<rect width="12" height="12" transform="translate(296 574)" fill="#8B86F7"/>
<rect width="12" height="12" transform="translate(296 590)" fill="#8B86F7"/>
<rect width="12" height="12" transform="translate(296 606)" fill="#8B86F7"/>
<rect width="12" height="12" transform="translate(296 622)" fill="#8B86F7"/>
<rect width="12" height="12" transform="translate(296 638)" fill="#8B86F7"/>
<rect width="12" height="12" transform="translate(312 446)" fill="#8B86F7"/>
<rect width="12" height="12" transform="translate(312 462)" fill="#8B86F7"/>
<rect width="12" height="12" transform="translate(312 478)" fill="#8B86F7"/>
<rect width="12" height="12" transform="translate(312 494)" fill="#8B86F7"/>
<rect width="12" height="12" transform="translate(312 510)" fill="#8B86F7"/>
<g clip-path="url(#clip0_12842_10990)">
<path d="M317.508 563.387H318.492C318.641 563.387 318.762 563.438 318.855 563.539C318.949 563.641 318.996 563.773 318.996 563.938V564.682C318.996 564.854 318.949 564.99 318.855 565.092C318.766 565.193 318.645 565.244 318.492 565.244H317.508C317.359 565.244 317.238 565.191 317.145 565.086C317.051 564.98 317.004 564.846 317.004 564.682V563.938C317.004 563.766 317.049 563.631 317.139 563.533C317.232 563.436 317.355 563.387 317.508 563.387Z" fill="#8B86F7"/>
</g>
<g clip-path="url(#clip1_12842_10990)">
<path d="M317.508 579.387H318.492C318.641 579.387 318.762 579.438 318.855 579.539C318.949 579.641 318.996 579.773 318.996 579.938V580.682C318.996 580.854 318.949 580.99 318.855 581.092C318.766 581.193 318.645 581.244 318.492 581.244H317.508C317.359 581.244 317.238 581.191 317.145 581.086C317.051 580.98 317.004 580.846 317.004 580.682V579.938C317.004 579.766 317.049 579.631 317.139 579.533C317.232 579.436 317.355 579.387 317.508 579.387Z" fill="#8B86F7"/>
</g>
<rect width="12" height="12" transform="translate(312 590)" fill="#8B86F7"/>
<rect width="12" height="12" transform="translate(312 606)" fill="#8B86F7"/>
<rect width="12" height="12" transform="translate(312 622)" fill="#8B86F7"/>
<rect width="12" height="12" transform="translate(328 462)" fill="#8B86F7"/>
<rect width="12" height="12" transform="translate(328 478)" fill="#8B86F7"/>
<rect width="12" height="12" transform="translate(328 494)" fill="#8B86F7"/>
<g clip-path="url(#clip2_12842_10990)">
<path d="M333.508 547.387H334.492C334.641 547.387 334.762 547.438 334.855 547.539C334.949 547.641 334.996 547.773 334.996 547.938V548.682C334.996 548.854 334.949 548.99 334.855 549.092C334.766 549.193 334.645 549.244 334.492 549.244H333.508C333.359 549.244 333.238 549.191 333.145 549.086C333.051 548.98 333.004 548.846 333.004 548.682V547.938C333.004 547.766 333.049 547.631 333.139 547.533C333.232 547.436 333.355 547.387 333.508 547.387Z" fill="#8B86F7"/>
</g>
<g clip-path="url(#clip3_12842_10990)">
<path d="M333.496 566.535V565.117H332.078C331.906 565.117 331.77 565.072 331.668 564.982C331.566 564.889 331.516 564.766 331.516 564.613C331.516 564.469 331.568 564.35 331.674 564.256C331.779 564.158 331.914 564.109 332.078 564.109H333.496V562.697C333.496 562.525 333.541 562.389 333.631 562.287C333.725 562.186 333.848 562.135 334 562.135C334.145 562.135 334.264 562.188 334.357 562.293C334.455 562.398 334.504 562.533 334.504 562.697V564.109H335.922C336.09 564.109 336.225 564.156 336.326 564.25C336.432 564.344 336.484 564.465 336.484 564.613C336.484 564.762 336.432 564.883 336.326 564.977C336.221 565.07 336.086 565.117 335.922 565.117H334.504V566.535C334.504 566.703 334.457 566.84 334.363 566.945C334.27 567.047 334.148 567.098 334 567.098C333.852 567.098 333.73 567.045 333.637 566.939C333.543 566.834 333.496 566.699 333.496 566.535Z" fill="#8B86F7"/>
</g>
<g clip-path="url(#clip4_12842_10990)">
<path d="M333.496 582.535V581.117H332.078C331.906 581.117 331.77 581.072 331.668 580.982C331.566 580.889 331.516 580.766 331.516 580.613C331.516 580.469 331.568 580.35 331.674 580.256C331.779 580.158 331.914 580.109 332.078 580.109H333.496V578.697C333.496 578.525 333.541 578.389 333.631 578.287C333.725 578.186 333.848 578.135 334 578.135C334.145 578.135 334.264 578.188 334.357 578.293C334.455 578.398 334.504 578.533 334.504 578.697V580.109H335.922C336.09 580.109 336.225 580.156 336.326 580.25C336.432 580.344 336.484 580.465 336.484 580.613C336.484 580.762 336.432 580.883 336.326 580.977C336.221 581.07 336.086 581.117 335.922 581.117H334.504V582.535C334.504 582.703 334.457 582.84 334.363 582.945C334.27 583.047 334.148 583.098 334 583.098C333.852 583.098 333.73 583.045 333.637 582.939C333.543 582.834 333.496 582.699 333.496 582.535Z" fill="#8B86F7"/>
</g>
<g clip-path="url(#clip5_12842_10990)">
<path d="M333.508 595.387H334.492C334.641 595.387 334.762 595.438 334.855 595.539C334.949 595.641 334.996 595.773 334.996 595.938V596.682C334.996 596.854 334.949 596.99 334.855 597.092C334.766 597.193 334.645 597.244 334.492 597.244H333.508C333.359 597.244 333.238 597.191 333.145 597.086C333.051 596.98 333.004 596.846 333.004 596.682V595.938C333.004 595.766 333.049 595.631 333.139 595.533C333.232 595.436 333.355 595.387 333.508 595.387Z" fill="#8B86F7"/>
</g>
<rect width="12" height="12" transform="translate(328 606)" fill="#8B86F7"/>
<rect width="12" height="12" transform="translate(344 302)" fill="#8B86F7"/>
<rect width="12" height="12" transform="translate(344 318)" fill="#8B86F7"/>
<rect width="12" height="12" transform="translate(344 334)" fill="#8B86F7"/>
<rect width="12" height="12" transform="translate(344 350)" fill="#8B86F7"/>
<rect width="12" height="12" transform="translate(344 366)" fill="#8B86F7"/>
<rect width="12" height="12" transform="translate(344 382)" fill="#8B86F7"/>
<rect width="12" height="12" transform="translate(344 398)" fill="#8B86F7"/>
<rect width="12" height="12" transform="translate(344 414)" fill="#8B86F7"/>
<rect width="12" height="12" transform="translate(344 430)" fill="#8B86F7"/>
<rect width="12" height="12" transform="translate(344 446)" fill="#8B86F7"/>
<rect width="12" height="12" transform="translate(344 462)" fill="#8B86F7"/>
<rect width="12" height="12" transform="translate(344 478)" fill="#8B86F7"/>
<g clip-path="url(#clip6_12842_10990)">
<path d="M349.508 531.387H350.492C350.641 531.387 350.762 531.438 350.855 531.539C350.949 531.641 350.996 531.773 350.996 531.938V532.682C350.996 532.854 350.949 532.99 350.855 533.092C350.766 533.193 350.645 533.244 350.492 533.244H349.508C349.359 533.244 349.238 533.191 349.145 533.086C349.051 532.98 349.004 532.846 349.004 532.682V531.938C349.004 531.766 349.049 531.631 349.139 531.533C349.232 531.436 349.355 531.387 349.508 531.387Z" fill="#8B86F7"/>
</g>
<g clip-path="url(#clip7_12842_10990)">
<path d="M349.496 550.535V549.117H348.078C347.906 549.117 347.77 549.072 347.668 548.982C347.566 548.889 347.516 548.766 347.516 548.613C347.516 548.469 347.568 548.35 347.674 548.256C347.779 548.158 347.914 548.109 348.078 548.109H349.496V546.697C349.496 546.525 349.541 546.389 349.631 546.287C349.725 546.186 349.848 546.135 350 546.135C350.145 546.135 350.264 546.188 350.357 546.293C350.455 546.398 350.504 546.533 350.504 546.697V548.109H351.922C352.09 548.109 352.225 548.156 352.326 548.25C352.432 548.344 352.484 548.465 352.484 548.613C352.484 548.762 352.432 548.883 352.326 548.977C352.221 549.07 352.086 549.117 351.922 549.117H350.504V550.535C350.504 550.703 350.457 550.84 350.363 550.945C350.27 551.047 350.148 551.098 350 551.098C349.852 551.098 349.73 551.045 349.637 550.939C349.543 550.834 349.496 550.699 349.496 550.535Z" fill="#8B86F7"/>
</g>
<g clip-path="url(#clip8_12842_10990)">
<path d="M348.085 559.517H352.05C352.373 559.517 352.649 559.631 352.877 559.858C353.109 560.086 353.226 560.364 353.226 560.692V563.461C353.226 563.789 353.109 564.067 352.877 564.295C352.649 564.523 352.373 564.637 352.05 564.637H348.604V567.412H352.569C352.765 567.412 352.923 567.467 353.041 567.576C353.164 567.686 353.226 567.827 353.226 568C353.226 568.173 353.164 568.314 353.041 568.424C352.918 568.533 352.761 568.588 352.569 568.588H347.429V564.637C347.429 564.313 347.543 564.037 347.771 563.81C347.998 563.577 348.276 563.461 348.604 563.461H352.05V560.692H348.085C347.884 560.692 347.725 560.64 347.606 560.535C347.488 560.426 347.429 560.282 347.429 560.104C347.429 559.931 347.49 559.79 347.613 559.681C347.736 559.571 347.894 559.517 348.085 559.517Z" fill="#8B86F7"/>
</g>
<g clip-path="url(#clip9_12842_10990)">
<path d="M348.085 575.517H352.05C352.373 575.517 352.649 575.631 352.877 575.858C353.109 576.086 353.226 576.364 353.226 576.692V579.461C353.226 579.789 353.109 580.067 352.877 580.295C352.649 580.523 352.373 580.637 352.05 580.637H348.604V583.412H352.569C352.765 583.412 352.923 583.467 353.041 583.576C353.164 583.686 353.226 583.827 353.226 584C353.226 584.173 353.164 584.314 353.041 584.424C352.918 584.533 352.761 584.588 352.569 584.588H347.429V580.637C347.429 580.313 347.543 580.037 347.771 579.81C347.998 579.577 348.276 579.461 348.604 579.461H352.05V576.692H348.085C347.884 576.692 347.725 576.64 347.606 576.535C347.488 576.426 347.429 576.282 347.429 576.104C347.429 575.931 347.49 575.79 347.613 575.681C347.736 575.571 347.894 575.517 348.085 575.517Z" fill="#8B86F7"/>
</g>
<g clip-path="url(#clip10_12842_10990)">
<path d="M349.496 598.535V597.117H348.078C347.906 597.117 347.77 597.072 347.668 596.982C347.566 596.889 347.516 596.766 347.516 596.613C347.516 596.469 347.568 596.35 347.674 596.256C347.779 596.158 347.914 596.109 348.078 596.109H349.496V594.697C349.496 594.525 349.541 594.389 349.631 594.287C349.725 594.186 349.848 594.135 350 594.135C350.145 594.135 350.264 594.188 350.357 594.293C350.455 594.398 350.504 594.533 350.504 594.697V596.109H351.922C352.09 596.109 352.225 596.156 352.326 596.25C352.432 596.344 352.484 596.465 352.484 596.613C352.484 596.762 352.432 596.883 352.326 596.977C352.221 597.07 352.086 597.117 351.922 597.117H350.504V598.535C350.504 598.703 350.457 598.84 350.363 598.945C350.27 599.047 350.148 599.098 350 599.098C349.852 599.098 349.73 599.045 349.637 598.939C349.543 598.834 349.496 598.699 349.496 598.535Z" fill="#8B86F7"/>
</g>
<g clip-path="url(#clip11_12842_10990)">
<path d="M349.508 611.387H350.492C350.641 611.387 350.762 611.438 350.855 611.539C350.949 611.641 350.996 611.773 350.996 611.938V612.682C350.996 612.854 350.949 612.99 350.855 613.092C350.766 613.193 350.645 613.244 350.492 613.244H349.508C349.359 613.244 349.238 613.191 349.145 613.086C349.051 612.98 349.004 612.846 349.004 612.682V611.938C349.004 611.766 349.049 611.631 349.139 611.533C349.232 611.436 349.355 611.387 349.508 611.387Z" fill="#8B86F7"/>
</g>
<rect width="12" height="12" transform="translate(344 622)" fill="#8B86F7"/>
<rect width="12" height="12" transform="translate(344 638)" fill="#8B86F7"/>
<rect width="12" height="12" transform="translate(344 654)" fill="#8B86F7"/>
<rect width="12" height="12" transform="translate(344 670)" fill="#8B86F7"/>
<rect width="12" height="12" transform="translate(344 686)" fill="#8B86F7"/>
<rect width="12" height="12" transform="translate(344 702)" fill="#8B86F7"/>
<rect width="12" height="12" transform="translate(344 718)" fill="#8B86F7"/>
<rect width="12" height="12" transform="translate(344 734)" fill="#8B86F7"/>
<rect width="12" height="12" transform="translate(344 750)" fill="#8B86F7"/>
<rect width="12" height="12" transform="translate(344 766)" fill="#8B86F7"/>
<rect width="12" height="12" transform="translate(360 302)" fill="#8B86F7"/>
<rect width="12" height="12" transform="translate(360 318)" fill="#8B86F7"/>
<rect width="12" height="12" transform="translate(360 334)" fill="#8B86F7"/>
<rect width="12" height="12" transform="translate(360 350)" fill="#8B86F7"/>
<rect width="12" height="12" transform="translate(360 366)" fill="#8B86F7"/>
<rect width="12" height="12" transform="translate(360 382)" fill="#8B86F7"/>
<rect width="12" height="12" transform="translate(360 398)" fill="#8B86F7"/>
<rect width="12" height="12" transform="translate(360 414)" fill="#8B86F7"/>
<rect width="12" height="12" transform="translate(360 430)" fill="#8B86F7"/>
<rect width="12" height="12" transform="translate(360 446)" fill="#8B86F7"/>
<rect width="12" height="12" transform="translate(360 462)" fill="#8B86F7"/>
<rect width="12" height="12" transform="translate(360 478)" fill="#8B86F7"/>
<g clip-path="url(#clip12_12842_10990)">
<path d="M365.508 515.387H366.492C366.641 515.387 366.762 515.438 366.855 515.539C366.949 515.641 366.996 515.773 366.996 515.938V516.682C366.996 516.854 366.949 516.99 366.855 517.092C366.766 517.193 366.645 517.244 366.492 517.244H365.508C365.359 517.244 365.238 517.191 365.145 517.086C365.051 516.98 365.004 516.846 365.004 516.682V515.938C365.004 515.766 365.049 515.631 365.139 515.533C365.232 515.436 365.355 515.387 365.508 515.387Z" fill="#8B86F7"/>
</g>
<g clip-path="url(#clip13_12842_10990)">
<path d="M365.496 534.535V533.117H364.078C363.906 533.117 363.77 533.072 363.668 532.982C363.566 532.889 363.516 532.766 363.516 532.613C363.516 532.469 363.568 532.35 363.674 532.256C363.779 532.158 363.914 532.109 364.078 532.109H365.496V530.697C365.496 530.525 365.541 530.389 365.631 530.287C365.725 530.186 365.848 530.135 366 530.135C366.145 530.135 366.264 530.188 366.357 530.293C366.455 530.398 366.504 530.533 366.504 530.697V532.109H367.922C368.09 532.109 368.225 532.156 368.326 532.25C368.432 532.344 368.484 532.465 368.484 532.613C368.484 532.762 368.432 532.883 368.326 532.977C368.221 533.07 368.086 533.117 367.922 533.117H366.504V534.535C366.504 534.703 366.457 534.84 366.363 534.945C366.27 535.047 366.148 535.098 366 535.098C365.852 535.098 365.73 535.045 365.637 534.939C365.543 534.834 365.496 534.699 365.496 534.535Z" fill="#8B86F7"/>
</g>
<g clip-path="url(#clip14_12842_10990)">
<path d="M364.085 543.517H368.05C368.373 543.517 368.649 543.631 368.877 543.858C369.109 544.086 369.226 544.364 369.226 544.692V547.461C369.226 547.789 369.109 548.067 368.877 548.295C368.649 548.523 368.373 548.637 368.05 548.637H364.604V551.412H368.569C368.765 551.412 368.923 551.467 369.041 551.576C369.164 551.686 369.226 551.827 369.226 552C369.226 552.173 369.164 552.314 369.041 552.424C368.918 552.533 368.761 552.588 368.569 552.588H363.429V548.637C363.429 548.313 363.543 548.037 363.771 547.81C363.998 547.577 364.276 547.461 364.604 547.461H368.05V544.692H364.085C363.884 544.692 363.725 544.64 363.606 544.535C363.488 544.426 363.429 544.282 363.429 544.104C363.429 543.931 363.49 543.79 363.613 543.681C363.736 543.571 363.894 543.517 364.085 543.517Z" fill="#8B86F7"/>
</g>
<g clip-path="url(#clip15_12842_10990)">
<path d="M364.604 560.692V567.412H368.05V560.692H364.604ZM364.728 559.517H367.92C368.339 559.517 368.66 559.628 368.884 559.852C369.112 560.075 369.226 560.396 369.226 560.815V567.289C369.226 567.708 369.112 568.03 368.884 568.253C368.66 568.476 368.339 568.588 367.92 568.588H364.728C364.308 568.588 363.987 568.476 363.764 568.253C363.54 568.03 363.429 567.708 363.429 567.289V560.815C363.429 560.396 363.54 560.075 363.764 559.852C363.987 559.628 364.308 559.517 364.728 559.517Z" fill="#8B86F7"/>
</g>
<g clip-path="url(#clip16_12842_10990)">
<path d="M364.604 576.692V583.412H368.05V576.692H364.604ZM364.728 575.517H367.92C368.339 575.517 368.66 575.628 368.884 575.852C369.112 576.075 369.226 576.396 369.226 576.815V583.289C369.226 583.708 369.112 584.03 368.884 584.253C368.66 584.476 368.339 584.588 367.92 584.588H364.728C364.308 584.588 363.987 584.476 363.764 584.253C363.54 584.03 363.429 583.708 363.429 583.289V576.815C363.429 576.396 363.54 576.075 363.764 575.852C363.987 575.628 364.308 575.517 364.728 575.517Z" fill="#8B86F7"/>
</g>
<g clip-path="url(#clip17_12842_10990)">
<path d="M364.085 591.517H368.05C368.373 591.517 368.649 591.631 368.877 591.858C369.109 592.086 369.226 592.364 369.226 592.692V595.461C369.226 595.789 369.109 596.067 368.877 596.295C368.649 596.523 368.373 596.637 368.05 596.637H364.604V599.412H368.569C368.765 599.412 368.923 599.467 369.041 599.576C369.164 599.686 369.226 599.827 369.226 600C369.226 600.173 369.164 600.314 369.041 600.424C368.918 600.533 368.761 600.588 368.569 600.588H363.429V596.637C363.429 596.313 363.543 596.037 363.771 595.81C363.998 595.577 364.276 595.461 364.604 595.461H368.05V592.692H364.085C363.884 592.692 363.725 592.64 363.606 592.535C363.488 592.426 363.429 592.282 363.429 592.104C363.429 591.931 363.49 591.79 363.613 591.681C363.736 591.571 363.894 591.517 364.085 591.517Z" fill="#8B86F7"/>
</g>
<g clip-path="url(#clip18_12842_10990)">
<path d="M365.496 614.535V613.117H364.078C363.906 613.117 363.77 613.072 363.668 612.982C363.566 612.889 363.516 612.766 363.516 612.613C363.516 612.469 363.568 612.35 363.674 612.256C363.779 612.158 363.914 612.109 364.078 612.109H365.496V610.697C365.496 610.525 365.541 610.389 365.631 610.287C365.725 610.186 365.848 610.135 366 610.135C366.145 610.135 366.264 610.188 366.357 610.293C366.455 610.398 366.504 610.533 366.504 610.697V612.109H367.922C368.09 612.109 368.225 612.156 368.326 612.25C368.432 612.344 368.484 612.465 368.484 612.613C368.484 612.762 368.432 612.883 368.326 612.977C368.221 613.07 368.086 613.117 367.922 613.117H366.504V614.535C366.504 614.703 366.457 614.84 366.363 614.945C366.27 615.047 366.148 615.098 366 615.098C365.852 615.098 365.73 615.045 365.637 614.939C365.543 614.834 365.496 614.699 365.496 614.535Z" fill="#8B86F7"/>
</g>
<g clip-path="url(#clip19_12842_10990)">
<path d="M365.508 627.387H366.492C366.641 627.387 366.762 627.438 366.855 627.539C366.949 627.641 366.996 627.773 366.996 627.938V628.682C366.996 628.854 366.949 628.99 366.855 629.092C366.766 629.193 366.645 629.244 366.492 629.244H365.508C365.359 629.244 365.238 629.191 365.145 629.086C365.051 628.98 365.004 628.846 365.004 628.682V627.938C365.004 627.766 365.049 627.631 365.139 627.533C365.232 627.436 365.355 627.387 365.508 627.387Z" fill="#8B86F7"/>
</g>
<rect width="12" height="12" transform="translate(360 638)" fill="#8B86F7"/>
<rect width="12" height="12" transform="translate(360 654)" fill="#8B86F7"/>
<rect width="12" height="12" transform="translate(360 670)" fill="#8B86F7"/>
<rect width="12" height="12" transform="translate(360 686)" fill="#8B86F7"/>
<rect width="12" height="12" transform="translate(360 702)" fill="#8B86F7"/>
<rect width="12" height="12" transform="translate(360 718)" fill="#8B86F7"/>
<rect width="12" height="12" transform="translate(360 734)" fill="#8B86F7"/>
<rect width="12" height="12" transform="translate(360 750)" fill="#8B86F7"/>
<rect width="12" height="12" transform="translate(360 766)" fill="#8B86F7"/>
<rect width="12" height="12" transform="translate(376 302)" fill="#8B86F7"/>
<rect width="12" height="12" transform="translate(376 318)" fill="#8B86F7"/>
<rect width="12" height="12" transform="translate(376 334)" fill="#8B86F7"/>
<rect width="12" height="12" transform="translate(376 350)" fill="#8B86F7"/>
<rect width="12" height="12" transform="translate(376 366)" fill="#8B86F7"/>
<rect width="12" height="12" transform="translate(376 382)" fill="#8B86F7"/>
<rect width="12" height="12" transform="translate(376 398)" fill="#8B86F7"/>
<rect width="12" height="12" transform="translate(376 414)" fill="#8B86F7"/>
<rect width="12" height="12" transform="translate(376 430)" fill="#8B86F7"/>
<rect width="12" height="12" transform="translate(376 446)" fill="#8B86F7"/>
<rect width="12" height="12" transform="translate(376 462)" fill="#8B86F7"/>
<rect width="12" height="12" transform="translate(376 478)" fill="#8B86F7"/>
<g clip-path="url(#clip20_12842_10990)">
<path d="M381.508 515.387H382.492C382.641 515.387 382.762 515.438 382.855 515.539C382.949 515.641 382.996 515.773 382.996 515.938V516.682C382.996 516.854 382.949 516.99 382.855 517.092C382.766 517.193 382.645 517.244 382.492 517.244H381.508C381.359 517.244 381.238 517.191 381.145 517.086C381.051 516.98 381.004 516.846 381.004 516.682V515.938C381.004 515.766 381.049 515.631 381.139 515.533C381.232 515.436 381.355 515.387 381.508 515.387Z" fill="#8B86F7"/>
</g>
<g clip-path="url(#clip21_12842_10990)">
<path d="M381.496 534.535V533.117H380.078C379.906 533.117 379.77 533.072 379.668 532.982C379.566 532.889 379.516 532.766 379.516 532.613C379.516 532.469 379.568 532.35 379.674 532.256C379.779 532.158 379.914 532.109 380.078 532.109H381.496V530.697C381.496 530.525 381.541 530.389 381.631 530.287C381.725 530.186 381.848 530.135 382 530.135C382.145 530.135 382.264 530.188 382.357 530.293C382.455 530.398 382.504 530.533 382.504 530.697V532.109H383.922C384.09 532.109 384.225 532.156 384.326 532.25C384.432 532.344 384.484 532.465 384.484 532.613C384.484 532.762 384.432 532.883 384.326 532.977C384.221 533.07 384.086 533.117 383.922 533.117H382.504V534.535C382.504 534.703 382.457 534.84 382.363 534.945C382.27 535.047 382.148 535.098 382 535.098C381.852 535.098 381.73 535.045 381.637 534.939C381.543 534.834 381.496 534.699 381.496 534.535Z" fill="#8B86F7"/>
</g>
<g clip-path="url(#clip22_12842_10990)">
<path d="M380.085 543.517H384.05C384.373 543.517 384.649 543.631 384.877 543.858C385.109 544.086 385.226 544.364 385.226 544.692V547.461C385.226 547.789 385.109 548.067 384.877 548.295C384.649 548.523 384.373 548.637 384.05 548.637H380.604V551.412H384.569C384.765 551.412 384.923 551.467 385.041 551.576C385.164 551.686 385.226 551.827 385.226 552C385.226 552.173 385.164 552.314 385.041 552.424C384.918 552.533 384.761 552.588 384.569 552.588H379.429V548.637C379.429 548.313 379.543 548.037 379.771 547.81C379.998 547.577 380.276 547.461 380.604 547.461H384.05V544.692H380.085C379.884 544.692 379.725 544.64 379.606 544.535C379.488 544.426 379.429 544.282 379.429 544.104C379.429 543.931 379.49 543.79 379.613 543.681C379.736 543.571 379.894 543.517 380.085 543.517Z" fill="#8B86F7"/>
</g>
<g clip-path="url(#clip23_12842_10990)">
<path d="M380.604 560.692V567.412H384.05V560.692H380.604ZM380.728 559.517H383.92C384.339 559.517 384.66 559.628 384.884 559.852C385.112 560.075 385.226 560.396 385.226 560.815V567.289C385.226 567.708 385.112 568.03 384.884 568.253C384.66 568.476 384.339 568.588 383.92 568.588H380.728C380.308 568.588 379.987 568.476 379.764 568.253C379.54 568.03 379.429 567.708 379.429 567.289V560.815C379.429 560.396 379.54 560.075 379.764 559.852C379.987 559.628 380.308 559.517 380.728 559.517Z" fill="#8B86F7"/>
</g>
<g clip-path="url(#clip24_12842_10990)">
<path d="M380.604 576.692V583.412H384.05V576.692H380.604ZM380.728 575.517H383.92C384.339 575.517 384.66 575.628 384.884 575.852C385.112 576.075 385.226 576.396 385.226 576.815V583.289C385.226 583.708 385.112 584.03 384.884 584.253C384.66 584.476 384.339 584.588 383.92 584.588H380.728C380.308 584.588 379.987 584.476 379.764 584.253C379.54 584.03 379.429 583.708 379.429 583.289V576.815C379.429 576.396 379.54 576.075 379.764 575.852C379.987 575.628 380.308 575.517 380.728 575.517Z" fill="#8B86F7"/>
</g>
<g clip-path="url(#clip25_12842_10990)">
<path d="M380.085 591.517H384.05C384.373 591.517 384.649 591.631 384.877 591.858C385.109 592.086 385.226 592.364 385.226 592.692V595.461C385.226 595.789 385.109 596.067 384.877 596.295C384.649 596.523 384.373 596.637 384.05 596.637H380.604V599.412H384.569C384.765 599.412 384.923 599.467 385.041 599.576C385.164 599.686 385.226 599.827 385.226 600C385.226 600.173 385.164 600.314 385.041 600.424C384.918 600.533 384.761 600.588 384.569 600.588H379.429V596.637C379.429 596.313 379.543 596.037 379.771 595.81C379.998 595.577 380.276 595.461 380.604 595.461H384.05V592.692H380.085C379.884 592.692 379.725 592.64 379.606 592.535C379.488 592.426 379.429 592.282 379.429 592.104C379.429 591.931 379.49 591.79 379.613 591.681C379.736 591.571 379.894 591.517 380.085 591.517Z" fill="#8B86F7"/>
</g>
<g clip-path="url(#clip26_12842_10990)">
<path d="M381.496 614.535V613.117H380.078C379.906 613.117 379.77 613.072 379.668 612.982C379.566 612.889 379.516 612.766 379.516 612.613C379.516 612.469 379.568 612.35 379.674 612.256C379.779 612.158 379.914 612.109 380.078 612.109H381.496V610.697C381.496 610.525 381.541 610.389 381.631 610.287C381.725 610.186 381.848 610.135 382 610.135C382.145 610.135 382.264 610.188 382.357 610.293C382.455 610.398 382.504 610.533 382.504 610.697V612.109H383.922C384.09 612.109 384.225 612.156 384.326 612.25C384.432 612.344 384.484 612.465 384.484 612.613C384.484 612.762 384.432 612.883 384.326 612.977C384.221 613.07 384.086 613.117 383.922 613.117H382.504V614.535C382.504 614.703 382.457 614.84 382.363 614.945C382.27 615.047 382.148 615.098 382 615.098C381.852 615.098 381.73 615.045 381.637 614.939C381.543 614.834 381.496 614.699 381.496 614.535Z" fill="#8B86F7"/>
</g>
<g clip-path="url(#clip27_12842_10990)">
<path d="M381.508 627.387H382.492C382.641 627.387 382.762 627.438 382.855 627.539C382.949 627.641 382.996 627.773 382.996 627.938V628.682C382.996 628.854 382.949 628.99 382.855 629.092C382.766 629.193 382.645 629.244 382.492 629.244H381.508C381.359 629.244 381.238 629.191 381.145 629.086C381.051 628.98 381.004 628.846 381.004 628.682V627.938C381.004 627.766 381.049 627.631 381.139 627.533C381.232 627.436 381.355 627.387 381.508 627.387Z" fill="#8B86F7"/>
</g>
<rect width="12" height="12" transform="translate(376 638)" fill="#8B86F7"/>
<rect width="12" height="12" transform="translate(376 654)" fill="#8B86F7"/>
<rect width="12" height="12" transform="translate(376 670)" fill="#8B86F7"/>
<rect width="12" height="12" transform="translate(376 686)" fill="#8B86F7"/>
<rect width="12" height="12" transform="translate(376 702)" fill="#8B86F7"/>
<rect width="12" height="12" transform="translate(376 718)" fill="#8B86F7"/>
<rect width="12" height="12" transform="translate(376 734)" fill="#8B86F7"/>
<rect width="12" height="12" transform="translate(376 750)" fill="#8B86F7"/>
<rect width="12" height="12" transform="translate(376 766)" fill="#8B86F7"/>
<rect width="12" height="12" transform="translate(392 302)" fill="#8B86F7"/>
<rect width="12" height="12" transform="translate(392 318)" fill="#8B86F7"/>
<rect width="12" height="12" transform="translate(392 334)" fill="#8B86F7"/>
<rect width="12" height="12" transform="translate(392 350)" fill="#8B86F7"/>
<rect width="12" height="12" transform="translate(392 366)" fill="#8B86F7"/>
<rect width="12" height="12" transform="translate(392 382)" fill="#8B86F7"/>
<rect width="12" height="12" transform="translate(392 398)" fill="#8B86F7"/>
<rect width="12" height="12" transform="translate(392 414)" fill="#8B86F7"/>
<rect width="12" height="12" transform="translate(392 430)" fill="#8B86F7"/>
<rect width="12" height="12" transform="translate(392 446)" fill="#8B86F7"/>
<rect width="12" height="12" transform="translate(392 462)" fill="#8B86F7"/>
<rect width="12" height="12" transform="translate(392 478)" fill="#8B86F7"/>
<g clip-path="url(#clip28_12842_10990)">
<path d="M397.508 531.387H398.492C398.641 531.387 398.762 531.438 398.855 531.539C398.949 531.641 398.996 531.773 398.996 531.938V532.682C398.996 532.854 398.949 532.99 398.855 533.092C398.766 533.193 398.645 533.244 398.492 533.244H397.508C397.359 533.244 397.238 533.191 397.145 533.086C397.051 532.98 397.004 532.846 397.004 532.682V531.938C397.004 531.766 397.049 531.631 397.139 531.533C397.232 531.436 397.355 531.387 397.508 531.387Z" fill="#8B86F7"/>
</g>
<g clip-path="url(#clip29_12842_10990)">
<path d="M397.496 550.535V549.117H396.078C395.906 549.117 395.77 549.072 395.668 548.982C395.566 548.889 395.516 548.766 395.516 548.613C395.516 548.469 395.568 548.35 395.674 548.256C395.779 548.158 395.914 548.109 396.078 548.109H397.496V546.697C397.496 546.525 397.541 546.389 397.631 546.287C397.725 546.186 397.848 546.135 398 546.135C398.145 546.135 398.264 546.188 398.357 546.293C398.455 546.398 398.504 546.533 398.504 546.697V548.109H399.922C400.09 548.109 400.225 548.156 400.326 548.25C400.432 548.344 400.484 548.465 400.484 548.613C400.484 548.762 400.432 548.883 400.326 548.977C400.221 549.07 400.086 549.117 399.922 549.117H398.504V550.535C398.504 550.703 398.457 550.84 398.363 550.945C398.27 551.047 398.148 551.098 398 551.098C397.852 551.098 397.73 551.045 397.637 550.939C397.543 550.834 397.496 550.699 397.496 550.535Z" fill="#8B86F7"/>
</g>
<g clip-path="url(#clip30_12842_10990)">
<path d="M396.085 559.517H400.05C400.373 559.517 400.649 559.631 400.877 559.858C401.109 560.086 401.226 560.364 401.226 560.692V563.461C401.226 563.789 401.109 564.067 400.877 564.295C400.649 564.523 400.373 564.637 400.05 564.637H396.604V567.412H400.569C400.765 567.412 400.923 567.467 401.041 567.576C401.164 567.686 401.226 567.827 401.226 568C401.226 568.173 401.164 568.314 401.041 568.424C400.918 568.533 400.761 568.588 400.569 568.588H395.429V564.637C395.429 564.313 395.543 564.037 395.771 563.81C395.998 563.577 396.276 563.461 396.604 563.461H400.05V560.692H396.085C395.884 560.692 395.725 560.64 395.606 560.535C395.488 560.426 395.429 560.282 395.429 560.104C395.429 559.931 395.49 559.79 395.613 559.681C395.736 559.571 395.894 559.517 396.085 559.517Z" fill="#8B86F7"/>
</g>
<g clip-path="url(#clip31_12842_10990)">
<path d="M396.085 575.517H400.05C400.373 575.517 400.649 575.631 400.877 575.858C401.109 576.086 401.226 576.364 401.226 576.692V579.461C401.226 579.789 401.109 580.067 400.877 580.295C400.649 580.523 400.373 580.637 400.05 580.637H396.604V583.412H400.569C400.765 583.412 400.923 583.467 401.041 583.576C401.164 583.686 401.226 583.827 401.226 584C401.226 584.173 401.164 584.314 401.041 584.424C400.918 584.533 400.761 584.588 400.569 584.588H395.429V580.637C395.429 580.313 395.543 580.037 395.771 579.81C395.998 579.577 396.276 579.461 396.604 579.461H400.05V576.692H396.085C395.884 576.692 395.725 576.64 395.606 576.535C395.488 576.426 395.429 576.282 395.429 576.104C395.429 575.931 395.49 575.79 395.613 575.681C395.736 575.571 395.894 575.517 396.085 575.517Z" fill="#8B86F7"/>
</g>
<g clip-path="url(#clip32_12842_10990)">
<path d="M397.496 598.535V597.117H396.078C395.906 597.117 395.77 597.072 395.668 596.982C395.566 596.889 395.516 596.766 395.516 596.613C395.516 596.469 395.568 596.35 395.674 596.256C395.779 596.158 395.914 596.109 396.078 596.109H397.496V594.697C397.496 594.525 397.541 594.389 397.631 594.287C397.725 594.186 397.848 594.135 398 594.135C398.145 594.135 398.264 594.188 398.357 594.293C398.455 594.398 398.504 594.533 398.504 594.697V596.109H399.922C400.09 596.109 400.225 596.156 400.326 596.25C400.432 596.344 400.484 596.465 400.484 596.613C400.484 596.762 400.432 596.883 400.326 596.977C400.221 597.07 400.086 597.117 399.922 597.117H398.504V598.535C398.504 598.703 398.457 598.84 398.363 598.945C398.27 599.047 398.148 599.098 398 599.098C397.852 599.098 397.73 599.045 397.637 598.939C397.543 598.834 397.496 598.699 397.496 598.535Z" fill="#8B86F7"/>
</g>
<g clip-path="url(#clip33_12842_10990)">
<path d="M397.508 611.387H398.492C398.641 611.387 398.762 611.438 398.855 611.539C398.949 611.641 398.996 611.773 398.996 611.938V612.682C398.996 612.854 398.949 612.99 398.855 613.092C398.766 613.193 398.645 613.244 398.492 613.244H397.508C397.359 613.244 397.238 613.191 397.145 613.086C397.051 612.98 397.004 612.846 397.004 612.682V611.938C397.004 611.766 397.049 611.631 397.139 611.533C397.232 611.436 397.355 611.387 397.508 611.387Z" fill="#8B86F7"/>
</g>
<rect width="12" height="12" transform="translate(392 622)" fill="#8B86F7"/>
<rect width="12" height="12" transform="translate(392 638)" fill="#8B86F7"/>
<rect width="12" height="12" transform="translate(392 654)" fill="#8B86F7"/>
<rect width="12" height="12" transform="translate(392 670)" fill="#8B86F7"/>
<rect width="12" height="12" transform="translate(392 686)" fill="#8B86F7"/>
<rect width="12" height="12" transform="translate(392 702)" fill="#8B86F7"/>
<rect width="12" height="12" transform="translate(392 718)" fill="#8B86F7"/>
<rect width="12" height="12" transform="translate(392 734)" fill="#8B86F7"/>
<rect width="12" height="12" transform="translate(392 750)" fill="#8B86F7"/>
<rect width="12" height="12" transform="translate(392 766)" fill="#8B86F7"/>
<rect width="12" height="12" transform="translate(408 462)" fill="#8B86F7"/>
<rect width="12" height="12" transform="translate(408 478)" fill="#8B86F7"/>
<rect width="12" height="12" transform="translate(408 494)" fill="#8B86F7"/>
<g clip-path="url(#clip34_12842_10990)">
<path d="M413.508 547.387H414.492C414.641 547.387 414.762 547.438 414.855 547.539C414.949 547.641 414.996 547.773 414.996 547.938V548.682C414.996 548.854 414.949 548.99 414.855 549.092C414.766 549.193 414.645 549.244 414.492 549.244H413.508C413.359 549.244 413.238 549.191 413.145 549.086C413.051 548.98 413.004 548.846 413.004 548.682V547.938C413.004 547.766 413.049 547.631 413.139 547.533C413.232 547.436 413.355 547.387 413.508 547.387Z" fill="#8B86F7"/>
</g>
<g clip-path="url(#clip35_12842_10990)">
<path d="M413.496 566.535V565.117H412.078C411.906 565.117 411.77 565.072 411.668 564.982C411.566 564.889 411.516 564.766 411.516 564.613C411.516 564.469 411.568 564.35 411.674 564.256C411.779 564.158 411.914 564.109 412.078 564.109H413.496V562.697C413.496 562.525 413.541 562.389 413.631 562.287C413.725 562.186 413.848 562.135 414 562.135C414.145 562.135 414.264 562.188 414.357 562.293C414.455 562.398 414.504 562.533 414.504 562.697V564.109H415.922C416.09 564.109 416.225 564.156 416.326 564.25C416.432 564.344 416.484 564.465 416.484 564.613C416.484 564.762 416.432 564.883 416.326 564.977C416.221 565.07 416.086 565.117 415.922 565.117H414.504V566.535C414.504 566.703 414.457 566.84 414.363 566.945C414.27 567.047 414.148 567.098 414 567.098C413.852 567.098 413.73 567.045 413.637 566.939C413.543 566.834 413.496 566.699 413.496 566.535Z" fill="#8B86F7"/>
</g>
<g clip-path="url(#clip36_12842_10990)">
<path d="M413.496 582.535V581.117H412.078C411.906 581.117 411.77 581.072 411.668 580.982C411.566 580.889 411.516 580.766 411.516 580.613C411.516 580.469 411.568 580.35 411.674 580.256C411.779 580.158 411.914 580.109 412.078 580.109H413.496V578.697C413.496 578.525 413.541 578.389 413.631 578.287C413.725 578.186 413.848 578.135 414 578.135C414.145 578.135 414.264 578.188 414.357 578.293C414.455 578.398 414.504 578.533 414.504 578.697V580.109H415.922C416.09 580.109 416.225 580.156 416.326 580.25C416.432 580.344 416.484 580.465 416.484 580.613C416.484 580.762 416.432 580.883 416.326 580.977C416.221 581.07 416.086 581.117 415.922 581.117H414.504V582.535C414.504 582.703 414.457 582.84 414.363 582.945C414.27 583.047 414.148 583.098 414 583.098C413.852 583.098 413.73 583.045 413.637 582.939C413.543 582.834 413.496 582.699 413.496 582.535Z" fill="#8B86F7"/>
</g>
<g clip-path="url(#clip37_12842_10990)">
<path d="M413.508 595.387H414.492C414.641 595.387 414.762 595.438 414.855 595.539C414.949 595.641 414.996 595.773 414.996 595.938V596.682C414.996 596.854 414.949 596.99 414.855 597.092C414.766 597.193 414.645 597.244 414.492 597.244H413.508C413.359 597.244 413.238 597.191 413.145 597.086C413.051 596.98 413.004 596.846 413.004 596.682V595.938C413.004 595.766 413.049 595.631 413.139 595.533C413.232 595.436 413.355 595.387 413.508 595.387Z" fill="#8B86F7"/>
</g>
<rect width="12" height="12" transform="translate(408 606)" fill="#8B86F7"/>
<rect width="12" height="12" transform="translate(424 446)" fill="#8B86F7"/>
<rect width="12" height="12" transform="translate(424 462)" fill="#8B86F7"/>
<rect width="12" height="12" transform="translate(424 478)" fill="#8B86F7"/>
<rect width="12" height="12" transform="translate(424 494)" fill="#8B86F7"/>
<rect width="12" height="12" transform="translate(424 510)" fill="#8B86F7"/>
<g clip-path="url(#clip38_12842_10990)">
<path d="M429.508 563.387H430.492C430.641 563.387 430.762 563.438 430.855 563.539C430.949 563.641 430.996 563.773 430.996 563.938V564.682C430.996 564.854 430.949 564.99 430.855 565.092C430.766 565.193 430.645 565.244 430.492 565.244H429.508C429.359 565.244 429.238 565.191 429.145 565.086C429.051 564.98 429.004 564.846 429.004 564.682V563.938C429.004 563.766 429.049 563.631 429.139 563.533C429.232 563.436 429.355 563.387 429.508 563.387Z" fill="#8B86F7"/>
</g>
<g clip-path="url(#clip39_12842_10990)">
<path d="M429.508 579.387H430.492C430.641 579.387 430.762 579.438 430.855 579.539C430.949 579.641 430.996 579.773 430.996 579.938V580.682C430.996 580.854 430.949 580.99 430.855 581.092C430.766 581.193 430.645 581.244 430.492 581.244H429.508C429.359 581.244 429.238 581.191 429.145 581.086C429.051 580.98 429.004 580.846 429.004 580.682V579.938C429.004 579.766 429.049 579.631 429.139 579.533C429.232 579.436 429.355 579.387 429.508 579.387Z" fill="#8B86F7"/>
</g>
<rect width="12" height="12" transform="translate(424 590)" fill="#8B86F7"/>
<rect width="12" height="12" transform="translate(424 606)" fill="#8B86F7"/>
<rect width="12" height="12" transform="translate(424 622)" fill="#8B86F7"/>
<rect width="12" height="12" transform="translate(440 430)" fill="#8B86F7"/>
<rect width="12" height="12" transform="translate(440 446)" fill="#8B86F7"/>
<rect width="12" height="12" transform="translate(440 462)" fill="#8B86F7"/>
<rect width="12" height="12" transform="translate(440 478)" fill="#8B86F7"/>
<rect width="12" height="12" transform="translate(440 494)" fill="#8B86F7"/>
<rect width="12" height="12" transform="translate(440 510)" fill="#8B86F7"/>
<rect width="12" height="12" transform="translate(440 526)" fill="#8B86F7"/>
<rect width="12" height="12" transform="translate(440 574)" fill="#8B86F7"/>
<rect width="12" height="12" transform="translate(440 590)" fill="#8B86F7"/>
<rect width="12" height="12" transform="translate(440 606)" fill="#8B86F7"/>
<rect width="12" height="12" transform="translate(440 622)" fill="#8B86F7"/>
<rect width="12" height="12" transform="translate(440 638)" fill="#8B86F7"/>
<rect width="12" height="12" transform="translate(456 414)" fill="#8B86F7"/>
<rect width="12" height="12" transform="translate(456 430)" fill="#8B86F7"/>
<rect width="12" height="12" transform="translate(456 446)" fill="#8B86F7"/>
<rect width="12" height="12" transform="translate(456 462)" fill="#8B86F7"/>
<rect width="12" height="12" transform="translate(456 478)" fill="#8B86F7"/>
<rect width="12" height="12" transform="translate(456 510)" fill="#8B86F7"/>
<rect width="12" height="12" transform="translate(456 526)" fill="#8B86F7"/>
<rect width="12" height="12" transform="translate(456 542)" fill="#8B86F7"/>
<rect width="12" height="12" transform="translate(456 590)" fill="#8B86F7"/>
<rect width="12" height="12" transform="translate(456 606)" fill="#8B86F7"/>
<rect width="12" height="12" transform="translate(456 622)" fill="#8B86F7"/>
<rect width="12" height="12" transform="translate(456 638)" fill="#8B86F7"/>
<rect width="12" height="12" transform="translate(456 654)" fill="#8B86F7"/>
<rect width="12" height="12" transform="translate(472 398)" fill="#8B86F7"/>
<rect width="12" height="12" transform="translate(472 414)" fill="#8B86F7"/>
<rect width="12" height="12" transform="translate(472 430)" fill="#8B86F7"/>
<rect width="12" height="12" transform="translate(472 446)" fill="#8B86F7"/>
<rect width="12" height="12" transform="translate(472 462)" fill="#8B86F7"/>
<rect width="12" height="12" transform="translate(472 510)" fill="#8B86F7"/>
<rect width="12" height="12" transform="translate(472 526)" fill="#8B86F7"/>
<rect width="12" height="12" transform="translate(472 542)" fill="#8B86F7"/>
<rect width="12" height="12" transform="translate(472 558)" fill="#8B86F7"/>
<rect width="12" height="12" transform="translate(472 606)" fill="#8B86F7"/>
<rect width="12" height="12" transform="translate(472 622)" fill="#8B86F7"/>
<rect width="12" height="12" transform="translate(472 638)" fill="#8B86F7"/>
<rect width="12" height="12" transform="translate(472 654)" fill="#8B86F7"/>
<rect width="12" height="12" transform="translate(472 670)" fill="#8B86F7"/>
<rect width="12" height="12" transform="translate(488 382)" fill="#8B86F7"/>
<rect width="12" height="12" transform="translate(488 398)" fill="#8B86F7"/>
<rect width="12" height="12" transform="translate(488 414)" fill="#8B86F7"/>
<rect width="12" height="12" transform="translate(488 430)" fill="#8B86F7"/>
<rect width="12" height="12" transform="translate(488 446)" fill="#8B86F7"/>
<rect width="12" height="12" transform="translate(488 510)" fill="#8B86F7"/>
<rect width="12" height="12" transform="translate(488 526)" fill="#8B86F7"/>
<rect width="12" height="12" transform="translate(488 542)" fill="#8B86F7"/>
<rect width="12" height="12" transform="translate(488 558)" fill="#8B86F7"/>
<rect width="12" height="12" transform="translate(488 622)" fill="#8B86F7"/>
<rect width="12" height="12" transform="translate(488 638)" fill="#8B86F7"/>
<rect width="12" height="12" transform="translate(488 654)" fill="#8B86F7"/>
<rect width="12" height="12" transform="translate(488 670)" fill="#8B86F7"/>
<rect width="12" height="12" transform="translate(488 686)" fill="#8B86F7"/>
<rect width="12" height="12" transform="translate(504 366)" fill="#8B86F7"/>
<rect width="12" height="12" transform="translate(504 382)" fill="#8B86F7"/>
<rect width="12" height="12" transform="translate(504 398)" fill="#8B86F7"/>
<rect width="12" height="12" transform="translate(504 414)" fill="#8B86F7"/>
<rect width="12" height="12" transform="translate(504 430)" fill="#8B86F7"/>
<rect width="12" height="12" transform="translate(504 510)" fill="#8B86F7"/>
<rect width="12" height="12" transform="translate(504 526)" fill="#8B86F7"/>
<rect width="12" height="12" transform="translate(504 542)" fill="#8B86F7"/>
<rect width="12" height="12" transform="translate(504 558)" fill="#8B86F7"/>
<rect width="12" height="12" transform="translate(504 638)" fill="#8B86F7"/>
<rect width="12" height="12" transform="translate(504 654)" fill="#8B86F7"/>
<rect width="12" height="12" transform="translate(504 670)" fill="#8B86F7"/>
<rect width="12" height="12" transform="translate(504 686)" fill="#8B86F7"/>
<rect width="12" height="12" transform="translate(504 702)" fill="#8B86F7"/>
<rect width="12" height="12" transform="translate(520 350)" fill="#8B86F7"/>
<rect width="12" height="12" transform="translate(520 366)" fill="#8B86F7"/>
<rect width="12" height="12" transform="translate(520 382)" fill="#8B86F7"/>
<rect width="12" height="12" transform="translate(520 398)" fill="#8B86F7"/>
<rect width="12" height="12" transform="translate(520 414)" fill="#8B86F7"/>
<rect width="12" height="12" transform="translate(520 510)" fill="#8B86F7"/>
<rect width="12" height="12" transform="translate(520 526)" fill="#8B86F7"/>
<rect width="12" height="12" transform="translate(520 542)" fill="#8B86F7"/>
<rect width="12" height="12" transform="translate(520 558)" fill="#8B86F7"/>
<rect width="12" height="12" transform="translate(520 654)" fill="#8B86F7"/>
<rect width="12" height="12" transform="translate(520 670)" fill="#8B86F7"/>
<rect width="12" height="12" transform="translate(520 686)" fill="#8B86F7"/>
<rect width="12" height="12" transform="translate(520 702)" fill="#8B86F7"/>
<rect width="12" height="12" transform="translate(520 718)" fill="#8B86F7"/>
<rect width="12" height="12" transform="translate(536 366)" fill="#8B86F7"/>
<rect width="12" height="12" transform="translate(536 382)" fill="#8B86F7"/>
<rect width="12" height="12" transform="translate(536 398)" fill="#8B86F7"/>
<rect width="12" height="12" transform="translate(536 510)" fill="#8B86F7"/>
<rect width="12" height="12" transform="translate(536 526)" fill="#8B86F7"/>
<rect width="12" height="12" transform="translate(536 542)" fill="#8B86F7"/>
<rect width="12" height="12" transform="translate(536 558)" fill="#8B86F7"/>
<rect width="12" height="12" transform="translate(536 670)" fill="#8B86F7"/>
<rect width="12" height="12" transform="translate(536 686)" fill="#8B86F7"/>
<rect width="12" height="12" transform="translate(536 702)" fill="#8B86F7"/>
<rect width="12" height="12" transform="translate(552 382)" fill="#8B86F7"/>
<rect width="12" height="12" transform="translate(552 510)" fill="#8B86F7"/>
<rect width="12" height="12" transform="translate(552 526)" fill="#8B86F7"/>
<rect width="12" height="12" transform="translate(552 542)" fill="#8B86F7"/>
<rect width="12" height="12" transform="translate(552 558)" fill="#8B86F7"/>
<rect width="12" height="12" transform="translate(552 686)" fill="#8B86F7"/>
<rect width="12" height="12" transform="translate(568 510)" fill="#8B86F7"/>
<rect width="12" height="12" transform="translate(568 526)" fill="#8B86F7"/>
<rect width="12" height="12" transform="translate(568 542)" fill="#8B86F7"/>
<rect width="12" height="12" transform="translate(568 558)" fill="#8B86F7"/>
<rect width="12" height="12" transform="translate(584 510)" fill="#8B86F7"/>
<rect width="12" height="12" transform="translate(584 526)" fill="#8B86F7"/>
<rect width="12" height="12" transform="translate(584 542)" fill="#8B86F7"/>
<rect width="12" height="12" transform="translate(584 558)" fill="#8B86F7"/>
<rect width="12" height="12" transform="translate(600 510)" fill="#8B86F7"/>
<rect width="12" height="12" transform="translate(600 526)" fill="#8B86F7"/>
<rect width="12" height="12" transform="translate(600 542)" fill="#8B86F7"/>
<rect width="12" height="12" transform="translate(600 558)" fill="#8B86F7"/>
<defs>
<radialGradient id="paint0_radial_12842_10990" cx="0" cy="0" r="1" gradientUnits="userSpaceOnUse" gradientTransform="translate(373.999 540) scale(325.501 247.497)">
<stop stop-color="#2F2F3E" stop-opacity="0.5"/>
<stop offset="1" stop-color="#2F2F3E" stop-opacity="0"/>
</radialGradient>
<radialGradient id="paint1_radial_12842_10990" cx="0" cy="0" r="1" gradientUnits="userSpaceOnUse" gradientTransform="translate(374 540) rotate(90) scale(540)">
<stop stop-color="white" stop-opacity="0.25"/>
<stop offset="1" stop-color="white" stop-opacity="0"/>
</radialGradient>
<clipPath id="clip0_12842_10990">
<rect width="12" height="12" fill="white" transform="translate(312 558)"/>
</clipPath>
<clipPath id="clip1_12842_10990">
<rect width="12" height="12" fill="white" transform="translate(312 574)"/>
</clipPath>
<clipPath id="clip2_12842_10990">
<rect width="12" height="12" fill="white" transform="translate(328 542)"/>
</clipPath>
<clipPath id="clip3_12842_10990">
<rect width="12" height="12" fill="white" transform="translate(328 558)"/>
</clipPath>
<clipPath id="clip4_12842_10990">
<rect width="12" height="12" fill="white" transform="translate(328 574)"/>
</clipPath>
<clipPath id="clip5_12842_10990">
<rect width="12" height="12" fill="white" transform="translate(328 590)"/>
</clipPath>
<clipPath id="clip6_12842_10990">
<rect width="12" height="12" fill="white" transform="translate(344 526)"/>
</clipPath>
<clipPath id="clip7_12842_10990">
<rect width="12" height="12" fill="white" transform="translate(344 542)"/>
</clipPath>
<clipPath id="clip8_12842_10990">
<rect width="12" height="12" fill="white" transform="translate(344 558)"/>
</clipPath>
<clipPath id="clip9_12842_10990">
<rect width="12" height="12" fill="white" transform="translate(344 574)"/>
</clipPath>
<clipPath id="clip10_12842_10990">
<rect width="12" height="12" fill="white" transform="translate(344 590)"/>
</clipPath>
<clipPath id="clip11_12842_10990">
<rect width="12" height="12" fill="white" transform="translate(344 606)"/>
</clipPath>
<clipPath id="clip12_12842_10990">
<rect width="12" height="12" fill="white" transform="translate(360 510)"/>
</clipPath>
<clipPath id="clip13_12842_10990">
<rect width="12" height="12" fill="white" transform="translate(360 526)"/>
</clipPath>
<clipPath id="clip14_12842_10990">
<rect width="12" height="12" fill="white" transform="translate(360 542)"/>
</clipPath>
<clipPath id="clip15_12842_10990">
<rect width="12" height="12" fill="white" transform="translate(360 558)"/>
</clipPath>
<clipPath id="clip16_12842_10990">
<rect width="12" height="12" fill="white" transform="translate(360 574)"/>
</clipPath>
<clipPath id="clip17_12842_10990">
<rect width="12" height="12" fill="white" transform="translate(360 590)"/>
</clipPath>
<clipPath id="clip18_12842_10990">
<rect width="12" height="12" fill="white" transform="translate(360 606)"/>
</clipPath>
<clipPath id="clip19_12842_10990">
<rect width="12" height="12" fill="white" transform="translate(360 622)"/>
</clipPath>
<clipPath id="clip20_12842_10990">
<rect width="12" height="12" fill="white" transform="translate(376 510)"/>
</clipPath>
<clipPath id="clip21_12842_10990">
<rect width="12" height="12" fill="white" transform="translate(376 526)"/>
</clipPath>
<clipPath id="clip22_12842_10990">
<rect width="12" height="12" fill="white" transform="translate(376 542)"/>
</clipPath>
<clipPath id="clip23_12842_10990">
<rect width="12" height="12" fill="white" transform="translate(376 558)"/>
</clipPath>
<clipPath id="clip24_12842_10990">
<rect width="12" height="12" fill="white" transform="translate(376 574)"/>
</clipPath>
<clipPath id="clip25_12842_10990">
<rect width="12" height="12" fill="white" transform="translate(376 590)"/>
</clipPath>
<clipPath id="clip26_12842_10990">
<rect width="12" height="12" fill="white" transform="translate(376 606)"/>
</clipPath>
<clipPath id="clip27_12842_10990">
<rect width="12" height="12" fill="white" transform="translate(376 622)"/>
</clipPath>
<clipPath id="clip28_12842_10990">
<rect width="12" height="12" fill="white" transform="translate(392 526)"/>
</clipPath>
<clipPath id="clip29_12842_10990">
<rect width="12" height="12" fill="white" transform="translate(392 542)"/>
</clipPath>
<clipPath id="clip30_12842_10990">
<rect width="12" height="12" fill="white" transform="translate(392 558)"/>
</clipPath>
<clipPath id="clip31_12842_10990">
<rect width="12" height="12" fill="white" transform="translate(392 574)"/>
</clipPath>
<clipPath id="clip32_12842_10990">
<rect width="12" height="12" fill="white" transform="translate(392 590)"/>
</clipPath>
<clipPath id="clip33_12842_10990">
<rect width="12" height="12" fill="white" transform="translate(392 606)"/>
</clipPath>
<clipPath id="clip34_12842_10990">
<rect width="12" height="12" fill="white" transform="translate(408 542)"/>
</clipPath>
<clipPath id="clip35_12842_10990">
<rect width="12" height="12" fill="white" transform="translate(408 558)"/>
</clipPath>
<clipPath id="clip36_12842_10990">
<rect width="12" height="12" fill="white" transform="translate(408 574)"/>
</clipPath>
<clipPath id="clip37_12842_10990">
<rect width="12" height="12" fill="white" transform="translate(408 590)"/>
</clipPath>
<clipPath id="clip38_12842_10990">
<rect width="12" height="12" fill="white" transform="translate(424 558)"/>
</clipPath>
<clipPath id="clip39_12842_10990">
<rect width="12" height="12" fill="white" transform="translate(424 574)"/>
</clipPath>
</defs>
</svg>
