<svg width="169" height="40" viewBox="0 0 169 40" fill="none" xmlns="http://www.w3.org/2000/svg">
<path d="M50.846 20.1427H44.9414V16.3265H61.1528V20.1427H55.2231V34.7764H50.846V20.1427Z" fill="white"/>
<path d="M70.2639 27.8301H67.3091V34.7764H62.957V16.3264H70.0586C71.0752 16.3264 71.9867 16.3765 72.783 16.4767C73.5793 16.5768 74.3406 16.7571 75.0617 17.0125C75.7829 17.2679 76.3839 17.6085 76.8697 18.0292C77.3555 18.4549 77.7361 19.0008 78.0165 19.6718C78.297 20.3429 78.4372 21.1292 78.4372 22.0257C78.4372 24.4847 77.2303 26.1824 74.8213 27.1139L79.3788 34.7764H74.2654L70.2689 27.8301H70.2639ZM67.3141 19.9924V24.1641H70.1888C71.3607 24.1641 72.2572 24.0139 72.8882 23.7184C73.5142 23.4229 73.8297 22.872 73.8297 22.0757C73.8297 21.2795 73.5092 20.7336 72.8732 20.4331C72.2371 20.1376 71.3407 19.9874 70.1888 19.9874H67.3141V19.9924Z" fill="white"/>
<path d="M85.6646 34.7764H81.3125V16.3264H85.6646V34.7764Z" fill="white"/>
<path d="M96.0977 16.3264C97.3697 16.3264 98.4865 16.4166 99.4431 16.5918C100.4 16.7721 101.276 17.0776 102.062 17.5083C102.854 17.939 103.45 18.56 103.855 19.3663C104.261 20.1727 104.466 21.1593 104.466 22.3312C104.466 23.5031 104.261 24.4947 103.855 25.311C103.45 26.1273 102.849 26.7533 102.062 27.1941C101.276 27.6348 100.4 27.9453 99.4431 28.1206C98.4865 28.2959 97.3697 28.386 96.0977 28.386H93.3482V34.7764H88.9961V16.3264H96.0977ZM93.3532 19.9924V24.725H96.2279C97.3797 24.725 98.2762 24.5548 98.9122 24.2142C99.5483 23.8737 99.8688 23.2477 99.8688 22.3312C99.8688 21.4147 99.5483 20.8187 98.9122 20.4882C98.2762 20.1576 97.3797 19.9924 96.2279 19.9924H93.3532Z" fill="white"/>
<path d="M110.581 30.9351H119.441V34.7764H106.234V16.3264H110.586V30.9351H110.581Z" fill="white"/>
<path d="M126.486 16.3264H131.269L138.241 34.7764H133.508L132.386 31.491H125.259L124.168 34.7764H119.535L126.481 16.3264H126.486ZM126.461 27.9553H131.219L128.85 20.9289L126.456 27.9553H126.461Z" fill="white"/>
<path d="M139.871 16.3264L143.992 23.4029L148.164 16.3264H153.202L146.076 27.6498V34.7764H141.724V27.5997L134.777 16.3264H139.866H139.871Z" fill="white"/>
<path d="M168.552 19.6618L159.007 30.9351H168.677V34.7764H153.277V31.441L162.873 20.1426H154.014V16.3264H168.547V19.6618H168.552Z" fill="white"/>
<path d="M40.0001 17.7939V22.196C40.0001 22.3613 39.8649 22.5015 39.6946 22.5015H29.8686C28.9371 22.5015 28.0457 22.1309 27.3896 21.4749L22.9173 17.0026C21.2897 15.375 18.6504 15.375 17.0277 17.0026L12.5354 21.4799C11.8793 22.1359 10.9879 22.5015 10.0614 22.5015H0.305497C0.140228 22.5015 0 22.3663 0 22.196V17.7989C0 17.6286 0.140228 17.4934 0.305497 17.4934H13.9527L4.302 7.84274C4.18181 7.72254 4.18181 7.53223 4.302 7.41204L7.41207 4.30198C7.53226 4.18179 7.72257 4.18179 7.84277 4.30198L17.4935 13.9527V0.305496C17.4935 0.140228 17.6337 0 17.799 0H22.1961C22.3664 0 22.5016 0.140228 22.5016 0.305496V13.9527L32.1523 4.30198C32.2725 4.18179 32.4628 4.18179 32.583 4.30198L35.6931 7.41204C35.8133 7.53223 35.8133 7.72254 35.6931 7.84274L26.0424 17.4934H39.6896C39.8549 17.4934 39.9951 17.6286 39.9951 17.7989L40.0001 17.7939Z" fill="#8B86F7"/>
<path d="M35.6972 32.1524L21.7745 18.2247C20.813 17.2632 19.2504 17.2582 18.2838 18.2147L4.30108 32.1574C4.18089 32.2776 4.18089 32.4679 4.30108 32.5881L7.41115 35.6981C7.53134 35.8183 7.72165 35.8183 7.84185 35.6981L17.4926 26.0474V39.6946C17.4926 39.8649 17.6328 40.0001 17.7981 40.0001H22.1952C22.3655 40.0001 22.5007 39.8649 22.5007 39.6946V26.0474L32.1514 35.6981C32.2716 35.8183 32.4619 35.8183 32.5821 35.6981L35.6922 32.5881C35.8124 32.4679 35.8124 32.2776 35.6922 32.1574L35.6972 32.1524Z" fill="white"/>
</svg>
