<svg width="48" height="48" viewBox="0 0 48 48" fill="none" xmlns="http://www.w3.org/2000/svg">
<rect width="48" height="48" rx="4" fill="#42359C"/>
<path d="M29.0725 12H25.0278V28.3478C25.0278 30.2957 23.4722 31.8957 21.5363 31.8957C19.6003 31.8957 18.0447 30.2957 18.0447 28.3478C18.0447 26.4348 19.5658 24.8695 21.4326 24.8V20.6957C17.3187 20.7652 14 24.1391 14 28.3478C14 32.5913 17.3879 36 21.5708 36C25.7538 36 29.1416 32.5565 29.1416 28.3478V19.9652C30.6627 21.0783 32.5295 21.7391 34.5 21.7739V17.6696C31.4579 17.5652 29.0725 15.0609 29.0725 12Z" fill="white"/>
</svg>
