<svg width="636" height="359" viewBox="0 0 636 359" fill="none" xmlns="http://www.w3.org/2000/svg">
<path d="M635 283.032V352.806C635 355.426 632.857 357.648 630.158 357.648H474.416C459.652 357.648 445.522 351.774 435.124 341.376L364.238 270.491C338.44 244.692 296.607 244.692 270.889 270.491L199.686 341.455C189.287 351.854 175.157 357.648 160.472 357.648H5.84212C3.22261 357.648 1 355.505 1 352.806V283.112C1 280.413 3.22261 278.27 5.84212 278.27H222.15L69.1865 125.307C67.2815 123.402 67.2815 120.386 69.1865 118.48L118.481 69.1862C120.386 67.2812 123.402 67.2812 125.307 69.1862L278.271 222.149V5.8421C278.271 3.22261 280.493 1 283.113 1H352.808C355.507 1 357.65 3.22261 357.65 5.8421V222.149L510.613 69.1862C512.518 67.2812 515.535 67.2812 517.44 69.1862L566.734 118.48C568.639 120.386 568.639 123.402 566.734 125.307L413.771 278.27H630.078C632.698 278.27 634.921 280.413 634.921 283.112L635 283.032Z" fill="#8B86F7" stroke="#585871" stroke-width="2"/>
</svg>
