<svg width="503" height="359" viewBox="0 0 503 359" fill="none" xmlns="http://www.w3.org/2000/svg">
<path d="M500.056 233.232L279.382 12.4803C264.141 -2.76037 239.375 -2.83978 224.055 12.3215L2.42882 233.312C0.523726 235.217 0.523726 238.233 2.42882 240.138L51.7232 289.432C53.6283 291.338 56.6447 291.338 58.5498 289.432L211.513 136.47V352.777C211.513 355.476 213.736 357.619 216.355 357.619H286.05C288.749 357.619 290.892 355.476 290.892 352.777V136.47L443.855 289.432C445.76 291.338 448.777 291.338 450.682 289.432L499.976 240.138C501.881 238.233 501.881 235.217 499.976 233.312L500.056 233.232Z" fill="#2B2B38" stroke="#585871" stroke-width="2"/>
</svg>
